<svg xmlns="http://www.w3.org/2000/svg" viewBox="0 0 200 80" fill="#142033">
  <!-- Propeller circle -->
  <circle cx="25" cy="40" r="4" fill="#142033"/>
  <!-- Propeller blades -->
  <line x1="25" y1="40" x2="18" y2="40" stroke="#142033" stroke-width="2" stroke-linecap="round"/>
  <line x1="25" y1="40" x2="25" y2="33" stroke="#142033" stroke-width="2" stroke-linecap="round"/>
  
  <!-- Fuselage (main body) -->
  <ellipse cx="60" cy="40" rx="35" ry="6" fill="#142033"/>
  
  <!-- Nose -->
  <ellipse cx="25" cy="40" rx="10" ry="7" fill="#142033"/>
  
  <!-- Main wings (top and bottom) -->
  <path d="M 50 34 L 5 10 L 0 12 L 50 34 Z" fill="#142033"/>
  <path d="M 50 46 L 5 70 L 0 68 L 50 46 Z" fill="#142033"/>
  
  <!-- Tail wings (horizontal stabilizers) -->
  <path d="M 85 37 L 140 30 L 145 33 L 85 37 Z" fill="#142033"/>
  <path d="M 85 43 L 140 50 L 145 47 L 85 43 Z" fill="#142033"/>
  
  <!-- Vertical tail fin -->
  <path d="M 90 34 L 90 5 L 95 5 L 95 34 Z" fill="#142033"/>
  
  <!-- Cockpit window -->
  <rect x="35" y="36" width="8" height="8" rx="1" fill="#142033" opacity="0.2"/>
</svg>
