<?xml version="1.0" encoding="UTF-8"?>
<svg xmlns="http://www.w3.org/2000/svg" width="252" height="61" viewBox="0 0 252 61" fill="none">
  <path d="M82.6753 32.0347C82.6753 28.4746 80.0474 25.655 76.4889 25.655C72.9305 25.655 70.3026 28.4746 70.3026 32.0347C70.3026 35.5947 73.0086 38.4168 76.4889 38.4168C79.9692 38.4168 82.6753 35.5971 82.6753 32.0347ZM76.4889 21.937C81.9792 21.937 86.4649 26.4388 86.4649 32.0347C86.4649 37.6305 81.9792 42.1347 76.4889 42.1347C73.8989 42.1347 71.8107 41.0391 70.3791 39.3167V49.6504H66.5508V32.0347C66.5508 26.4388 70.9986 21.937 76.4889 21.937Z" fill="#566069"></path>
  <path d="M88.5947 31.6052C88.5947 25.1071 92.0363 22.1714 96.7146 22.1714H97.1005V25.8917H96.7146C94.0085 25.8917 92.3844 27.652 92.3844 31.606V41.8221H88.5947V31.606V31.6052Z" fill="#566069"></path>
  <path d="M101.86 32.0352C101.86 35.5968 104.566 38.4149 108.085 38.4149C111.603 38.4149 114.232 35.5968 114.232 32.0352C114.232 28.4735 111.642 25.6554 108.085 25.6554C104.527 25.6554 101.86 28.4735 101.86 32.0352ZM118.022 32.0352C118.022 37.6334 113.576 42.1352 108.046 42.1352C102.516 42.1352 98.0698 37.6334 98.0698 32.0352C98.0698 26.4369 102.516 21.9375 108.046 21.9375C113.576 21.9375 118.022 26.4393 118.022 32.0352Z" fill="#566069"></path>
  <path d="M136.275 32.0347C136.275 28.4746 133.647 25.655 130.089 25.655C126.53 25.655 123.902 28.4746 123.902 32.0347C123.902 35.5947 126.608 38.4168 130.089 38.4168C133.569 38.4168 136.275 35.5971 136.275 32.0347ZM130.089 21.937C135.579 21.937 140.065 26.4388 140.065 32.0347C140.065 37.6305 135.579 42.1347 130.089 42.1347C127.498 42.1347 125.41 41.0391 123.979 39.3167V49.6504H120.15V32.0347C120.15 26.4388 124.598 21.937 130.089 21.937Z" fill="#566069"></path>
  <path d="M145.791 32.0352C145.791 35.5968 148.497 38.4149 152.017 38.4149C155.537 38.4149 158.164 35.5968 158.164 32.0352C158.164 28.4735 155.573 25.6554 152.017 25.6554C148.461 25.6554 145.791 28.4735 145.791 32.0352ZM161.953 32.0352C161.953 37.6334 157.506 42.1352 151.976 42.1352C146.447 42.1352 142 37.6334 142 32.0352C142 26.4369 146.447 21.9375 151.976 21.9375C157.506 21.9375 161.953 26.4393 161.953 32.0352Z" fill="#566069"></path>
  <path d="M181.096 41.8214H177.306V31.5271C177.306 27.5329 175.606 25.655 172.588 25.655C169.57 25.655 167.872 27.5329 167.872 31.5271V41.8214H164.083V31.5271C164.083 24.9508 167.64 21.937 172.588 21.937C177.536 21.937 181.096 24.9508 181.096 31.5271V41.8214H181.096Z" fill="#566069"></path>
  <path d="M198.961 30.3131C198.265 27.6513 195.945 25.655 193.161 25.655C190.145 25.655 187.98 27.6513 187.285 30.3131H198.961ZM193.045 21.937C198.033 21.937 202.83 25.6171 203.021 31.6826C203.021 32.3489 202.984 32.937 202.905 33.4445H187.285C187.593 36.3407 189.913 38.4168 193.045 38.4168C195.173 38.4168 196.681 37.5548 197.686 36.4591L202.21 36.4994C200.548 39.8653 197.068 42.1356 193.162 42.1356C187.595 42.1356 183.224 37.6337 183.224 32.0758C183.224 26.5178 187.478 21.9378 193.046 21.9378" fill="#566069"></path>
  <path d="M222.164 41.8214H218.375V31.5271C218.375 27.5329 216.675 25.655 213.657 25.655C210.639 25.655 208.941 27.5329 208.941 31.5271V41.8214H205.151V31.5271C205.151 24.9508 208.709 21.937 213.657 21.937C218.605 21.937 222.165 24.9508 222.165 31.5271V41.8214H222.164Z" fill="#566069"></path>
  <path d="M229.823 25.9692V32.5455C229.823 36.2634 231.253 37.9859 234 38.2211V41.939C229.359 41.7433 226.074 38.8849 226.034 32.5834V25.9692H223.174V22.2488H226.034V15.2432H229.823V22.2488H234V25.9692H229.823Z" fill="#566069"></path>
  <path d="M27.1962 29.5168L0 29.5491C0.0676722 27.2772 0.376225 25.0674 0.915991 22.951L22.642 22.9253L11.5317 6.71857C13.2533 5.3764 15.1215 4.22436 17.1114 3.28662L30.8295 23.2983C28.8437 24.7105 27.4677 26.9445 27.1954 29.516" fill="#FF671C"></path>
  <path d="M35.7907 21.7088C37.1071 21.7088 38.351 22.0149 39.4684 22.5491L47.6463 6.7452C45.9279 5.40143 44.0604 4.24536 42.0722 3.3052L35.8939 15.2413L28.2832 0.534668C25.9412 0.636982 23.6694 1.01885 21.499 1.64079L32.279 22.4685C33.3529 21.9827 34.5388 21.7088 35.7907 21.7088Z" fill="#FF671C"></path>
  <path d="M44.3859 29.5169L59.1457 29.533C59.078 27.2628 58.7678 25.053 58.2281 22.9374L49.1463 22.9253L54.7623 14.733C53.5619 12.7672 52.1464 10.949 50.5424 9.3208L40.8887 23.4031C42.8004 24.8193 44.1208 27.005 44.3867 29.5169" fill="#FF671C"></path>
  <path d="M27.1962 31.4077L0 31.3755C0.0676722 33.6473 0.376225 35.8572 0.915991 37.9735L22.642 37.9993L11.5317 54.2052C13.2533 55.5474 15.1215 56.6994 17.1114 57.6371L30.8295 37.6255C28.8437 36.2116 27.4677 33.9793 27.1954 31.4077" fill="#566069"></path>
  <path d="M35.7907 39.2158C34.5388 39.2158 33.3529 38.9418 32.279 38.4561L21.499 59.2838C23.6694 59.9057 25.9412 60.2876 28.2832 60.3899L35.8955 45.6857L42.0738 57.6194C44.0621 56.6792 45.9295 55.5231 47.6479 54.1794L39.47 38.3755C38.3518 38.9096 37.1079 39.2158 35.7924 39.2158" fill="#566069"></path>
  <path d="M40.8875 37.5222L50.5413 51.6045C52.1453 49.9747 53.5616 48.1588 54.7611 46.1923L49.1451 37.9983L58.2269 37.9887C58.7667 35.8723 59.0768 33.6625 59.1445 31.3906L44.3847 31.4083C44.1189 33.9187 42.7985 36.1043 40.8867 37.5222" fill="#FF671C"></path>
  <path d="M241.574 37.3174C240.979 37.3174 240.471 37.5293 240.049 37.9531C239.63 38.3747 239.42 38.884 239.42 39.481C239.42 40.0825 239.629 40.5952 240.046 41.019C240.465 41.4429 240.974 41.6548 241.574 41.6548C242.173 41.6548 242.682 41.4429 243.102 41.019C243.521 40.5952 243.73 40.0825 243.73 39.481C243.73 38.884 243.521 38.3747 243.102 37.9531C242.68 37.5293 242.171 37.3174 241.574 37.3174ZM244.086 39.481C244.086 40.1759 243.841 40.7695 243.351 41.2617C242.861 41.7539 242.269 42 241.574 42C240.879 42 240.287 41.7539 239.8 41.2617C239.314 40.7718 239.072 40.1782 239.072 39.481C239.072 38.7905 239.317 38.2004 239.807 37.7104C240.294 37.2228 240.883 36.979 241.574 36.979C242.269 36.979 242.861 37.2228 243.351 37.7104C243.841 38.1981 244.086 38.7882 244.086 39.481ZM242.23 38.9341C242.23 38.7336 242.168 38.5991 242.045 38.5308C241.925 38.4624 241.73 38.4282 241.461 38.4282H241.047V39.4263H241.485C241.69 39.4263 241.844 39.4058 241.946 39.3647C242.135 39.2896 242.23 39.146 242.23 38.9341ZM241.526 38.0967C241.868 38.0967 242.118 38.1297 242.278 38.1958C242.563 38.3143 242.705 38.5467 242.705 38.8931C242.705 39.1392 242.615 39.3203 242.435 39.4365C242.339 39.498 242.206 39.5425 242.035 39.5698C242.252 39.604 242.41 39.694 242.51 39.8398C242.611 39.9857 242.661 40.1281 242.661 40.2671V40.4688C242.661 40.5326 242.663 40.6009 242.667 40.6738C242.672 40.7467 242.68 40.7946 242.691 40.8174L242.708 40.8516H242.254C242.252 40.8424 242.249 40.8333 242.247 40.8242C242.245 40.8151 242.243 40.8049 242.24 40.7935L242.23 40.7046V40.4858C242.23 40.1668 242.143 39.9561 241.97 39.8535C241.868 39.7943 241.688 39.7646 241.43 39.7646H241.047V40.8516H240.562V38.0967H241.526Z" fill="#5C6771"></path>
</svg>
